<?xml version="1.0" encoding="UTF-8" standalone="no"?>
<!DOCTYPE svg PUBLIC "-//W3C//DTD SVG 1.1//EN" "http://www.w3.org/Graphics/SVG/1.1/DTD/svg11.dtd">
<svg width="100%" height="100%" viewBox="0 0 1323 1323" version="1.1" xmlns="http://www.w3.org/2000/svg" xmlns:xlink="http://www.w3.org/1999/xlink" xml:space="preserve" xmlns:serif="http://www.serif.com/" style="fill-rule:evenodd;clip-rule:evenodd;stroke-linecap:round;stroke-linejoin:round;stroke-miterlimit:1.5;">
    <g transform="matrix(1,0,0,1,-1252.541667,-417.541667)">
        <g>
            <g transform="matrix(0.658239,0.658239,-0.699201,0.699201,2164.303168,-1111.261377)">
                <path d="M1473,1946C1389.898,1968.751 1317.536,1798.912 1470.637,1778.151C1547.204,1767.768 1610.635,1719.095 1610.635,1646.354L1610.635,1251.911C1610.635,1179.171 1547.904,1120.115 1470.637,1120.115C1393.37,1120.115 1330.639,1179.171 1330.639,1251.911L1332.918,1489.961C1336.305,1492.772 1322.403,1501.691 1301.389,1512.069C1286.44,1519.452 1253.093,1536.525 1238.556,1547.426C1189.856,1583.947 1161.586,1626.196 1148.038,1577.147L1145,1252.784C1145,1082.362 1291.972,944 1473,944C1654.028,944 1801,1082.362 1801,1252.784L1801,1637.216C1801,1807.638 1654.028,1946 1473,1946" style="fill:rgb(255,233,151);stroke:rgb(8,6,5);stroke-width:23.86px;"/>
            </g>
            <g transform="matrix(-0.658239,-0.658239,0.699201,-0.699201,1662.90943,3268.473976)">
                <path d="M1473,1946C1389.898,1968.751 1317.536,1798.912 1470.637,1778.151C1547.204,1767.768 1610.635,1719.095 1610.635,1646.354L1610.635,1251.911C1610.635,1179.171 1547.904,1120.115 1470.637,1120.115C1393.37,1120.115 1330.639,1179.171 1330.639,1251.911L1332.918,1489.961C1336.305,1492.772 1322.403,1501.691 1301.389,1512.069C1286.44,1519.452 1253.093,1536.525 1238.556,1547.426C1189.856,1583.947 1161.586,1626.196 1148.038,1577.147L1145,1252.784C1145,1082.362 1291.972,944 1473,944C1654.028,944 1801,1082.362 1801,1252.784L1801,1637.216C1801,1807.638 1654.028,1946 1473,1946" style="fill:rgb(136,49,0);stroke:rgb(8,6,5);stroke-width:23.86px;"/>
            </g>
        </g>
    </g>
</svg>
