<?xml version="1.0" encoding="UTF-8" standalone="no"?>
<!DOCTYPE svg PUBLIC "-//W3C//DTD SVG 1.1//EN" "http://www.w3.org/Graphics/SVG/1.1/DTD/svg11.dtd">
<svg width="100%" height="100%" viewBox="0 0 1344 1372" version="1.1" xmlns="http://www.w3.org/2000/svg" xmlns:xlink="http://www.w3.org/1999/xlink" xml:space="preserve" xmlns:serif="http://www.serif.com/" style="fill-rule:evenodd;clip-rule:evenodd;stroke-linecap:round;stroke-linejoin:round;stroke-miterlimit:1.5;">
    <g transform="matrix(1,0,0,1,-1190.754265,-357.699147)">
        <g transform="matrix(0.960812,0,0,1,182.987014,-9)">
            <path d="M1924.325,987.626L1198.126,1713.825C1180.954,1730.996 1153.072,1730.996 1135.901,1713.825L1073.675,1651.599C1056.504,1634.428 1056.504,1606.546 1073.675,1589.374L1799.874,863.175C1817.046,846.004 1844.928,846.004 1862.099,863.175L1924.325,925.401C1941.496,942.572 1941.496,970.454 1924.325,987.626Z" style="fill:rgb(136,49,0);stroke:rgb(8,6,5);stroke-width:23.37px;"/>
            <g transform="matrix(1.021392,0,0,0.981366,-181.922937,206.4185)">
                <circle cx="2050.5" cy="686.5" r="511.5" style="fill:rgb(136,49,0);stroke:rgb(8,6,5);stroke-width:23.35px;"/>
            </g>
            <g transform="matrix(0.853656,0,0,0.820203,162.019728,317.05668)">
                <circle cx="2050.5" cy="686.5" r="511.5" style="fill:rgb(255,233,151);stroke:rgb(8,6,5);stroke-width:27.94px;"/>
            </g>
        </g>
    </g>
</svg>
